<?xml version="1.0" encoding="UTF-8" standalone="no"?>
<svg
   width="811.52704"
   height="812.78418"
   viewBox="7.406 6.999 325.78006 326.32835"
   version="1.1"
   id="svg18"
   sodipodi:docname="icon.svg"
   xmlns:inkscape="http://www.inkscape.org/namespaces/inkscape"
   xmlns:sodipodi="http://sodipodi.sourceforge.net/DTD/sodipodi-0.dtd"
   xmlns="http://www.w3.org/2000/svg"
   xmlns:svg="http://www.w3.org/2000/svg">
  <defs
     id="defs22">
    <clipPath
       clipPathUnits="userSpaceOnUse"
       id="clipPath397">
      <path
         d="M 45.884,64.751 C 33.902,78.872002 24.796,95.098999 18.086,112.677 11.103,131.026 7.405,149.889 7.405,170.001 c 0,22.68 4.861,43.733 13.248,63.743 8.284,19.786 19.667,36.801 34.644999,51.777 14.549003,14.516 31.666001,26.086 51.333001,34.645 19.684,8.559 41.08,13.248 63.331,13.248 22.68,0 43.699,-4.553 63.743,-13.248 19.324,-8.387 36.561,-19.907 51.333,-34.645 14.754,-14.771 25.982,-32.145 34.232,-51.777 8.438,-20.164 13.249,-41.063 13.249,-63.743 0,-20.112 -3.715,-38.975 -10.682,-57.324 C 315.11,95.097999 306.108,79.213999 294.006,64.751 282.144,50.578 268.279,38.785 252.532,29.696 227.833,15.438 202.466,6.999 172.957,6.999 h -4.279 c -29.099,0 -55.715,8.353 -80.859002,22.697 C 72.003999,38.699 57.865002,50.646001 45.884,64.751 Z m 672.94101,1.711 c -15.83301,0 -30.38201,2.567 -44.07502,8.129998 C 661.05698,80.155001 649.07498,87.858002 638.839,98.128001 628.56902,108.398 620.42201,119.952 615.28702,133.217 c -5.54601,13.249 -8.113,27.797 -8.113,43.63 0,14.978 2.56699,29.526 8.113,42.775 5.13499,12.837 13.282,24.818 23.55198,35.088 10.682,9.843 22.64602,17.973 36.33899,23.536 13.26602,5.135 28.243,8.13 43.64702,8.13 15.81599,0 29.938,-2.995 44.059,-8.13 13.26598,-5.563 25.67501,-13.693 35.945,-23.536 10.68099,-10.27 18.38298,-22.251 23.94597,-35.517 5.56202,-13.248 8.13002,-27.369 8.13002,-42.347 0,-15.833 -2.56699,-30.382 -8.13002,-43.63 C 817.63898,119.951 809.93699,108.397 799.256,98.127002 788.98501,87.856998 776.57602,80.154002 762.88301,74.590999 749.19,69.028 734.64201,66.462 718.82501,66.462 Z m 0,70.179 c 10.681,0 19.23897,3.423 25.65799,11.109 6.41901,7.274 9.84199,16.689 9.84199,29.098 0,11.554 -3.42298,21.396 -9.84199,28.242 -6.41902,7.275 -14.97799,10.698 -25.65799,10.698 -10.69702,0 -18.828,-3.423 -25.24701,-10.698 -6.84701,-6.846 -9.842,-16.688 -9.842,-28.242 0,-12.409 2.99499,-21.824 9.842,-29.098 6.41901,-7.686 14.54999,-11.109 25.24701,-11.109 z m -146.33,85.121 c 1.71198,-9.824 2.567,-22.234 2.567,-37.211 V 71.169001 H 499.79998 V 185.406 c 0,12.838 -1.301,21.824 -4.707,27.387 -3.42398,5.135 -8.55897,7.686 -16.26096,7.686 -7.70304,0 -12.83803,-2.551 -16.26201,-7.686 -2.99499,-4.707 -4.70701,-14.121 -4.70701,-27.387 V 71.169001 H 382.995 V 184.55 c -0.428,15.832 0.856,27.814 2.567,37.211 1.712,9.842 5.136,17.545 8.986,23.964 8.559,13.265 20.11199,23.107 34.64501,29.954 14.121,7.274 30.81,10.697 49.63901,10.697 18.828,0 35.07098,-3.423 49.62098,-10.697 14.54899,-6.847 26.103,-16.689 34.23298,-29.954 4.28102,-6.418 7.68702,-14.549 9.80903,-23.963 z M 937.86698,71.169001 H 862.57099 V 280.814 H 1011.007 v -68.021 h -73.14002 z"
         id="path399"
         style="stroke-width:0.999998" />
    </clipPath>
  </defs>
  <sodipodi:namedview
     id="namedview20"
     pagecolor="#ffffff"
     bordercolor="#666666"
     borderopacity="1.0"
     inkscape:showpageshadow="2"
     inkscape:pageopacity="0.0"
     inkscape:pagecheckerboard="0"
     inkscape:deskcolor="#d1d1d1"
     showgrid="false" />
  <rect
     style="fill:#000000;stroke:#0a14b6;stroke-width:1.46435;stroke-linejoin:round;paint-order:stroke fill markers"
     id="rect395"
     width="324.43402"
     height="324.86404"
     x="8.0624352"
     y="7.74474"
     clip-path="url(#clipPath397)"
     transform="translate(-0.06608118,-0.01356502)" />
  <path
     fill="#ff9c02"
     d="m 278.53592,66.021435 c -20.095,-24.357 -46.181,-40.208 -78.274,-46.198 -31.648,-5.991 -61.603,-1.267 -89.846,14.139 -14.532001,8.112 -26.942001,18.382 -36.784001,30.347 -10.271,12.41 -17.973,26.531 -23.107,42.363995 -5.136,16.261 -6.419,33.377 -4.707,50.049 4.279,-10.698 10.697,-20.523 18.4,-29.937 11.126,-13.266 24.819,-23.107 40.207001,-30.381995 15.404,-6.847 32.094,-10.698 49.638,-11.126 17.545,0 34.645,3.423 50.478,10.27 16.688,6.846995 31.238,17.116995 43.647,30.809995 4.707,4.708 8.559,10.27 12.375,15.816 5.58,0 11.126,0.428 15.851,1.712 12.393,3.423 22.251,9.842 29.954,19.256 l 0.41,-5.991 c 1.301,-16.671 -0.41,-32.504 -5.135,-47.91 -4.689,-15.404995 -12.392,-29.953995 -23.107,-43.218995 z M 42.393919,220.05343 c 2.14,12.82 5.991,25.229 12.41,36.356 5.99,11.125 14.121,21.396 24.391,30.382 l 5.136,4.278 c 17.527001,11.965 36.355001,20.523 56.896001,24.803 13.266,2.567 26.53,1.711 39.352,-1.301 13.693,-2.979 26.53,-8.559 38.512,-16.672 -11.126,-2.551 -20.968,-8.541 -28.67,-17.527 l -2.995,-3.424 c -16.244,1.712 -32.505,1.284 -48.766,-2.139 -20.54,-4.707 -38.513,-13.266 -55.185001,-25.248 -15.833,-11.981 -29.099,-27.387 -38.94,-45.342 l -2.567,-5.135 c -0.429,6.848 -0.429,14.105 0.426,20.969 z"
     id="path4" />
  <path
     fill="#e3232b"
     d="m 194.69892,112.23643 c -14.978,-6.419 -31.221,-9.414 -47.91,-9.414 -16.261,0.428 -31.666,3.851 -45.787,10.698 -14.104001,6.419 -26.514001,15.833 -36.783001,27.814 -7.274,8.969 -13.266,18.812 -17.117,29.082 2.996,12.837 7.703,24.819 14.55,36.801 9.842,16.671 22.68,30.793 38.495001,41.918 15.405,11.126 32.949,18.4 51.778,22.68 11.554,2.14 23.535,2.996 35.5,2.567 -4.708,-7.702 -7.703,-15.833 -8.986,-25.247 -1.712,-9.414 -1.267,-18.828 0.428,-29.081 2.14,-12.409 6.847,-23.964 13.266,-34.661 6.847,-10.698 15.832,-20.54 26.53,-28.243 6.847,-5.135 14.121,-8.986 21.396,-11.981 l -3.852,-4.279 c -11.982,-12.394 -25.675,-22.236 -41.508,-28.654 z"
     id="path6" />
  <path
     fill="#fa7317"
     d="m 308.93492,185.39243 -3.868,-6.419 c -5.546,19.257 -15.816,36.356 -29.099,51.761 -2.979,12.838 -8.113,24.392 -14.96,35.09 -6.829,10.697 -15.815,20.111 -26.086,28.208 7.274,0.462 14.55,-0.856 21.824,-3.39 6.829,-2.567 13.231,-6.418 19.667,-11.553 8.559,-8.131 16.672,-17.545 23.518,-27.387 l 1.301,-1.713 c 2.979,-6.418 5.991,-12.837 8.114,-18.828 2.156,-6.418 3.423,-12.837 3.868,-18.811 0.41,-6.419 0.41,-11.982 -0.856,-17.545 -0.855,-3.423 -2.156,-6.418 -3.423,-9.413 z"
     id="path8" />
  <path
     fill="#eb4721"
     d="m 27.417919,110.09643 c -5.529,15.405 -8.559,31.649 -9.397,49.193 -0.411,22.679 3.868,44.503 12.393,65.027 4.279,9.842 9.414,19.256 15.833,28.242 5.99,8.559 12.837,16.688 20.54,23.963 -16.688,-18.4 -26.531,-39.796 -29.526,-63.742 -0.855,-8.131 -0.855,-15.833 -0.428,-23.963 -5.563,-15.406 -8.559,-30.811 -8.559,-46.644 0,-14.96 2.567,-29.509 7.274,-44.485995 3.852,-10.27 8.986,-20.112 14.55,-29.098 -9.843,12.837 -17.118,26.531 -22.68,41.507995 z m 292.198001,8.986 c -3.834,-12.41 -8.969,-24.390995 -15.405,-35.516995 -6.401,-10.698 -14.104,-20.54 -23.518,-29.509 -8.559,-8.969 -18.418,-16.671 -29.51,-23.107 9.38,6.436 17.938,14.138 25.642,22.697 11.981,13.659 20.984,28.208 26.53,44.469 5.58,16.687995 8.147,33.804995 6.847,51.760995 -0.411,5.563 -1.267,10.698 -2.123,16.261 2.123,3.423 4.279,7.703 5.991,11.982 4.279,12.409 5.135,25.675 2.979,38.923 6.436,-18.383 9.859,-37.639 9.414,-57.751 -0.856,-13.695 -2.979,-27.371 -6.847,-40.209 z"
     id="path10" />
  <path
     fill="#eb4721"
     d="m 269.12192,159.71743 c 4.279,8.986 6.847,18.829 8.147,28.67 1.267,9.843 1.712,19.257 0.856,28.653 l -1.712,9.414 c 12.837,-14.959 21.396,-31.648 26.53,-50.904 -3.013,-2.996 -5.99,-5.991 -9.414,-8.559 -6.846,-4.706 -14.993,-7.274 -24.407,-7.274 z"
     id="path12" />
  <path
     fill="#e3232b"
     d="m 243.48092,272.67043 c 5.135,-7.273 9.414,-15.404 12.409,-23.535 -17.116,12.41 -35.944,20.969 -56.484,25.247 2.995,4.708 6.847,8.559 11.126,11.554 4.279,2.996 8.986,5.135 14.549,6.848 6.846,-5.992 13.265,-12.839 18.4,-20.114 z m -85.994,45.77 18.4,0.856 c 15.815,-0.445 30.793,-3.424 45.342,-8.148 13.693,-4.689 26.959,-11.125 38.479,-19.222 -7.24,3.423 -14.942,5.974 -23.073,6.385 -2.567,0.444 -5.562,0.444 -8.559,0.444 -20.968,13.694 -44.503,20.096 -70.589,19.685 z"
     id="path14" />
  <path
     fill="#fff000"
     d="m 259.29692,194.37943 c -2.55,-11.126 -6.401,-21.396 -11.964,-31.238 -9.843,2.996 -18.4,8.131 -26.531,14.978 -8.559,7.274 -15.833,16.261 -21.396,26.53 -4.707,10.271 -7.703,20.096 -8.559,30.365 -1.284,9.842 0,18.828 2.567,27.387 1.284,2.996 2.14,5.562 3.852,8.131 10.697,-1.284 20.54,-4.279 30.382,-8.559 10.271,-3.852 19.685,-9.414 28.637,-16.261 l 0.855,-0.429 a 147.322,147.322 0 0 0 3.868,-19.256 c 0.857,-10.697 0.412,-20.951 -1.711,-31.648 z"
     id="path16" />
</svg>
